<?xml version="1.0" encoding="UTF-8" standalone="no"?>
<!DOCTYPE svg PUBLIC "-//W3C//DTD SVG 1.1//EN"
 "http://www.w3.org/Graphics/SVG/1.1/DTD/svg11.dtd">
<!-- Generated by graphviz version 2.50.0 (0)
 -->
<!-- Pages: 1 -->
<svg width="329pt" height="338pt"
 viewBox="0.00 0.00 328.83 337.65" xmlns="http://www.w3.org/2000/svg" xmlns:xlink="http://www.w3.org/1999/xlink">
<g id="graph0" class="graph" transform="scale(1 1) rotate(0) translate(4 333.65)">
<polygon fill="white" stroke="transparent" points="-4,4 -4,-333.65 324.83,-333.65 324.83,4 -4,4"/>
<!-- A -->
<g id="node1" class="node">
<title>A</title>
<polygon fill="lightgray" stroke="black" points="268.73,-329.65 245.73,-329.65 245.73,-311.65 268.73,-311.65 268.73,-329.65"/>
<text text-anchor="middle" x="257.23" y="-318.45" font-family="Times,serif" font-size="9.00">A</text>
</g>
<!-- A XOR B -->
<g id="node3" class="node">
<title>A XOR B</title>
<ellipse fill="lightblue" stroke="black" cx="281.23" cy="-39.6" rx="39.7" ry="39.7"/>
<text text-anchor="middle" x="281.23" y="-37.4" font-family="Times,serif" font-size="9.00">A XOR B</text>
</g>
<!-- A&#45;&gt;A XOR B -->
<g id="edge11" class="edge">
<title>A&#45;&gt;A XOR B</title>
<path fill="none" stroke="red" stroke-width="0.3" stroke-dasharray="1,5" d="M260.08,-311.33C262.94,-302.57 267.21,-288.31 269.23,-275.65 279.43,-211.93 281.61,-137.39 281.79,-89.61"/>
<polygon fill="red" stroke="red" stroke-width="0.3" points="285.29,-89.55 281.8,-79.55 278.29,-89.54 285.29,-89.55"/>
</g>
<!-- 581 -->
<g id="node4" class="node">
<title>581</title>
<ellipse fill="white" stroke="black" cx="185.23" cy="-242.41" rx="25" ry="25"/>
<text text-anchor="middle" x="185.23" y="-240.21" font-family="Times,serif" font-size="9.00">581</text>
</g>
<!-- A&#45;&gt;581 -->
<g id="edge3" class="edge">
<title>A&#45;&gt;581</title>
<path fill="none" stroke="green" stroke-width="0.85" d="M249.53,-311.49C239.89,-301.28 222.94,-283.34 208.87,-268.43"/>
<polygon fill="green" stroke="green" stroke-width="0.85" points="211.23,-265.84 201.82,-260.97 206.14,-270.65 211.23,-265.84"/>
</g>
<!-- 9938 -->
<g id="node6" class="node">
<title>9938</title>
<ellipse fill="white" stroke="black" cx="94.23" cy="-144.19" rx="28.98" ry="28.98"/>
<text text-anchor="middle" x="94.23" y="-141.99" font-family="Times,serif" font-size="9.00">9938</text>
</g>
<!-- A&#45;&gt;9938 -->
<g id="edge7" class="edge">
<title>A&#45;&gt;9938</title>
<path fill="none" stroke="green" stroke-width="0.66" d="M256.49,-311.4C254.3,-291.52 246.21,-240.28 219.23,-209.18 196.26,-182.69 159.64,-165.76 131.96,-156.02"/>
<polygon fill="green" stroke="green" stroke-width="0.66" points="132.81,-152.61 122.21,-152.75 130.58,-159.25 132.81,-152.61"/>
</g>
<!-- 184 -->
<g id="node7" class="node">
<title>184</title>
<ellipse fill="white" stroke="black" cx="217.23" cy="-144.19" rx="25" ry="25"/>
<text text-anchor="middle" x="217.23" y="-141.99" font-family="Times,serif" font-size="9.00">184</text>
</g>
<!-- A&#45;&gt;184 -->
<g id="edge6" class="edge">
<title>A&#45;&gt;184</title>
<path fill="none" stroke="red" stroke-width="1.12" d="M258.11,-311.41C259.81,-292.78 262.58,-246.15 252.23,-209.18 248.8,-196.92 242.67,-184.42 236.48,-173.76"/>
<polygon fill="red" stroke="red" stroke-width="1.12" points="239.29,-171.63 231.1,-164.91 233.31,-175.27 239.29,-171.63"/>
</g>
<!-- B -->
<g id="node2" class="node">
<title>B</title>
<polygon fill="lightgray" stroke="black" points="124.73,-329.65 101.73,-329.65 101.73,-311.65 124.73,-311.65 124.73,-329.65"/>
<text text-anchor="middle" x="113.23" y="-318.45" font-family="Times,serif" font-size="9.00">B</text>
</g>
<!-- B&#45;&gt;581 -->
<g id="edge5" class="edge">
<title>B&#45;&gt;581</title>
<path fill="none" stroke="red" stroke-width="0.69" d="M120.94,-311.49C130.58,-301.28 147.53,-283.34 161.6,-268.43"/>
<polygon fill="red" stroke="red" stroke-width="0.69" points="164.33,-270.65 168.65,-260.97 159.24,-265.84 164.33,-270.65"/>
</g>
<!-- 10129 -->
<g id="node5" class="node">
<title>10129</title>
<ellipse fill="white" stroke="black" cx="33.23" cy="-242.41" rx="33.47" ry="33.47"/>
<text text-anchor="middle" x="33.23" y="-240.21" font-family="Times,serif" font-size="9.00">10129</text>
</g>
<!-- B&#45;&gt;10129 -->
<g id="edge9" class="edge">
<title>B&#45;&gt;10129</title>
<path fill="none" stroke="red" stroke-width="0.12" d="M104.67,-311.49C95.06,-302.33 78.91,-286.94 64.39,-273.1"/>
<polygon fill="red" stroke="red" stroke-width="0.12" points="66.65,-270.42 56.99,-266.05 61.82,-275.49 66.65,-270.42"/>
</g>
<!-- B&#45;&gt;9938 -->
<g id="edge8" class="edge">
<title>B&#45;&gt;9938</title>
<path fill="none" stroke="green" stroke-width="0.58" stroke-dasharray="1,5" d="M112.32,-311.23C109.84,-288.52 102.91,-224.87 98.39,-183.3"/>
<polygon fill="green" stroke="green" stroke-width="0.58" points="101.85,-182.81 97.29,-173.25 94.89,-183.57 101.85,-182.81"/>
</g>
<!-- B&#45;&gt;184 -->
<g id="edge1" class="edge">
<title>B&#45;&gt;184</title>
<path fill="none" stroke="green" stroke-width="1.14" d="M114.66,-311.59C118.3,-292.55 129.26,-243.76 151.23,-209.18 161.51,-193 176.67,-177.92 189.87,-166.47"/>
<polygon fill="green" stroke="green" stroke-width="1.14" points="192.37,-168.94 197.77,-159.83 187.86,-163.58 192.37,-168.94"/>
</g>
<!-- 581&#45;&gt;184 -->
<g id="edge4" class="edge">
<title>581&#45;&gt;184</title>
<path fill="none" stroke="green" stroke-width="2.4" d="M192.82,-218.61C196.88,-206.39 201.96,-191.12 206.43,-177.67"/>
<polygon fill="green" stroke="green" stroke-width="2.4" points="209.87,-178.42 209.7,-167.83 203.23,-176.21 209.87,-178.42"/>
</g>
<!-- 10129&#45;&gt;9938 -->
<g id="edge10" class="edge">
<title>10129&#45;&gt;9938</title>
<path fill="none" stroke="green" stroke-width="0.11" stroke-dasharray="1,5" d="M50.71,-213.84C57.84,-202.6 66.13,-189.52 73.56,-177.8"/>
<polygon fill="green" stroke="green" stroke-width="0.11" points="76.63,-179.49 79.03,-169.17 70.72,-175.74 76.63,-179.49"/>
</g>
<!-- 184&#45;&gt;A XOR B -->
<g id="edge2" class="edge">
<title>184&#45;&gt;A XOR B</title>
<path fill="none" stroke="red" stroke-width="6.08" d="M230.19,-122.43C237.32,-111 246.43,-96.38 254.98,-82.68"/>
<polygon fill="red" stroke="red" stroke-width="6.08" points="259.71,-85.15 260.49,-73.85 250.68,-79.51 259.71,-85.15"/>
</g>
</g>
</svg>
